<svg xmlns="http://www.w3.org/2000/svg" xmlns:xlink="http://www.w3.org/1999/xlink" width="110" height="158" viewBox="0 0 110 158"><defs><style>.a{fill:none;}.b{clip-path:url(#a);}.c{fill:url(#b);}.d,.e{fill:#fff;}.d{font-size:20px;font-family:RobotoSlab-Bold, Roboto Slab;font-weight:700;opacity:0.9;}.f{opacity:0.5;}.g,.h{stroke:none;}.h{fill:#ccedff;}</style><clipPath id="a"><rect class="a" width="110" height="158"/></clipPath><linearGradient id="b" x1="1" y1="1" x2="0" gradientUnits="objectBoundingBox"><stop offset="0" stop-color="#80d0c7"/><stop offset="1" stop-color="#13547a"/></linearGradient></defs><g class="b"><g class="c"><path class="g" d="M 105 157.5 L 5 157.5 C 2.518699884414673 157.5 0.5 155.4812927246094 0.5 153 L 0.5 5 C 0.5 2.518699884414673 2.518699884414673 0.5 5 0.5 L 105 0.5 C 107.4813003540039 0.5 109.5 2.518699884414673 109.5 5 L 109.5 153 C 109.5 155.4812927246094 107.4813003540039 157.5 105 157.5 Z"/><path class="h" d="M 5 1 C 2.794403076171875 1 1 2.794403076171875 1 5 L 1 153 C 1 155.2055969238281 2.794403076171875 157 5 157 L 105 157 C 107.2055969238281 157 109 155.2055969238281 109 153 L 109 5 C 109 2.794403076171875 107.2055969238281 1 105 1 L 5 1 M 5 0 L 105 0 C 107.7614212036133 0 110 2.238555908203125 110 5 L 110 153 C 110 155.7614135742188 107.7614212036133 158 105 158 L 5 158 C 2.238578796386719 158 0 155.7614135742188 0 153 L 0 5 C 0 2.238555908203125 2.238578796386719 0 5 0 Z"/></g><text class="d" transform="translate(19 27)"><tspan x="-7.183" y="0">A</tspan></text><text class="d" transform="translate(91.77 131) rotate(180)"><tspan x="-7.183" y="0">A</tspan></text><g transform="translate(-582 -154)"><ellipse class="e" cx="3.819" cy="3.819" rx="3.819" ry="3.819" transform="translate(670.181 164)"/><ellipse class="e" cx="3.819" cy="3.819" rx="3.819" ry="3.819" transform="translate(666 170.525)"/><ellipse class="e" cx="3.819" cy="3.819" rx="3.819" ry="3.819" transform="translate(674.362 170.525)"/><path class="e" d="M2.387,0,4.774,7.638H0Z" transform="translate(671.613 175.186)"/></g><g transform="translate(693 311.824) rotate(180)"><ellipse class="e" cx="3.819" cy="3.819" rx="3.819" ry="3.819" transform="translate(670.181 164)"/><ellipse class="e" cx="3.819" cy="3.819" rx="3.819" ry="3.819" transform="translate(666 170.525)"/><ellipse class="e" cx="3.819" cy="3.819" rx="3.819" ry="3.819" transform="translate(674.362 170.525)"/><path class="e" d="M2.387,0,4.774,7.638H0Z" transform="translate(671.613 175.186)"/></g><g class="f" transform="translate(-633 -111)"><ellipse class="e" cx="10.74" cy="10.741" rx="10.74" ry="10.741" transform="translate(677.76 164)"/><ellipse class="e" cx="10.74" cy="10.741" rx="10.74" ry="10.741" transform="translate(666 182.352)"/><ellipse class="e" cx="10.74" cy="10.741" rx="10.74" ry="10.741" transform="translate(689.519 182.352)"/><path class="e" d="M6.713,0l6.713,21.481H0Z" transform="translate(681.787 195.461)"/></g></g></svg>